<?xml version="1.0" encoding="UTF-8" standalone="no"?>
<svg
   xmlns:dc="http://purl.org/dc/elements/1.1/"
   xmlns:cc="http://creativecommons.org/ns#"
   xmlns:rdf="http://www.w3.org/1999/02/22-rdf-syntax-ns#"
   xmlns:svg="http://www.w3.org/2000/svg"
   xmlns="http://www.w3.org/2000/svg"
   xmlns:sodipodi="http://sodipodi.sourceforge.net/DTD/sodipodi-0.dtd"
   xmlns:inkscape="http://www.inkscape.org/namespaces/inkscape"
   version="1.1"
   width="612"
   height="792"
   id="svg2"
   inkscape:version="0.91 r13725"
   viewBox="0 0 612 792"
   sodipodi:docname="light barrier expeyes.svg">
  <metadata
     id="metadata144">
    <rdf:RDF>
      <cc:Work
         rdf:about="">
        <dc:format>image/svg+xml</dc:format>
        <dc:type
           rdf:resource="http://purl.org/dc/dcmitype/StillImage" />
        <dc:title></dc:title>
      </cc:Work>
    </rdf:RDF>
  </metadata>
  <defs
     id="defs142" />
  <sodipodi:namedview
     pagecolor="#ffffff"
     bordercolor="#666666"
     borderopacity="1"
     objecttolerance="10"
     gridtolerance="10"
     guidetolerance="10"
     inkscape:pageopacity="0"
     inkscape:pageshadow="2"
     inkscape:window-width="1855"
     inkscape:window-height="1056"
     id="namedview140"
     showgrid="false"
     inkscape:zoom="1.1919192"
     inkscape:cx="199.35257"
     inkscape:cy="309.21459"
     inkscape:window-x="65"
     inkscape:window-y="24"
     inkscape:window-maximized="1"
     inkscape:current-layer="svg2" />
  <g
     id="Layer1000"
     transform="translate(-258.30974,104.93851)">
    <path
       d="m 382.1763,168.7767 0,70.8661 113.3858,0 0,-70.8661 -113.3858,0 z"
       style="fill:none;stroke:#1b1918;stroke-width:0.5;stroke-linecap:butt;stroke-linejoin:miter;stroke-dasharray:none"
       id="path5"
       inkscape:connector-curvature="0" />
    <g
       id="Layer1001">
      <path
         d="m 386.7117,190.0365 0,42.5197 13.6063,0 0,-42.5197 -13.6063,0 z"
         style="fill:none;stroke:#1b1918;stroke-width:0.5;stroke-linecap:butt;stroke-linejoin:miter;stroke-dasharray:none"
         id="path8"
         inkscape:connector-curvature="0" />
      <path
         d="m 386.7117,175.8634 0,8.5039 13.6063,0 0,-8.5039 -13.6063,0 z"
         style="fill:none;stroke:#1b1918;stroke-width:0.5;stroke-linecap:butt;stroke-linejoin:miter;stroke-dasharray:none"
         id="path10"
         inkscape:connector-curvature="0" />
    </g>
    <g
       id="Layer1002">
      <path
         d="m 449.0739,190.0365 0,42.5197 13.6063,0 0,-42.5197 -13.6063,0 z"
         style="fill:none;stroke:#1b1918;stroke-width:0.5;stroke-linecap:butt;stroke-linejoin:miter;stroke-dasharray:none"
         id="path13"
         inkscape:connector-curvature="0" />
      <path
         d="m 449.0739,175.8634 0,8.5039 13.6063,0 0,-8.5039 -13.6063,0 z"
         style="fill:none;stroke:#1b1918;stroke-width:0.5;stroke-linecap:butt;stroke-linejoin:miter;stroke-dasharray:none"
         id="path15"
         inkscape:connector-curvature="0" />
    </g>
    <g
       id="Layer1003">
      <path
         d="m 477.4204,190.0365 0,42.5197 13.6063,0 0,-42.5197 -13.6063,0 z"
         style="fill:none;stroke:#1b1918;stroke-width:0.5;stroke-linecap:butt;stroke-linejoin:miter;stroke-dasharray:none"
         id="path18"
         inkscape:connector-curvature="0" />
      <path
         d="m 477.4204,175.8634 0,8.5039 13.6063,0 0,-8.5039 -13.6063,0 z"
         style="fill:none;stroke:#1b1918;stroke-width:0.5;stroke-linecap:butt;stroke-linejoin:miter;stroke-dasharray:none"
         id="path20"
         inkscape:connector-curvature="0" />
    </g>
    <path
       d="m 433.2002,199.9579 a 4.2522,4.2522 0 0 1 4.2522,4.2522 4.2522,4.2522 0 1 1 -4.2522,-4.2522 z"
       style="fill:none;stroke:#1b1918;stroke-width:0.5;stroke-linecap:butt;stroke-linejoin:miter;stroke-dasharray:none"
       id="path22"
       inkscape:connector-curvature="0" />
  </g>
  <g
     id="Layer1004"
     transform="translate(-258.30974,104.93851)">
    <path
       d="m 510.2362,168.378 85.0394,0 0,70.8661 -85.0394,0 0,-7.0866 -14.1732,0 0,-42.5197 14.1732,0 0,-5.2441 -14.1732,0 0,-3.9685 42.8862,0 0,-1.4173 -42.8862,0 0,-3.9685 14.1732,0 0,-6.6614 z"
       style="fill:none;stroke:#1b1918;stroke-width:0.5;stroke-linecap:butt;stroke-linejoin:miter;stroke-dasharray:none"
       id="path25"
       inkscape:connector-curvature="0" />
    <path
       d="m 510.2363,175.0394 42.5197,-0.001"
       style="fill:none;stroke:#1b1918;stroke-width:0.5;stroke-linecap:butt;stroke-linejoin:miter;stroke-dasharray:none"
       id="path27"
       inkscape:connector-curvature="0" />
    <path
       d="m 510.2363,184.3937 42.5197,-0.0558"
       style="fill:none;stroke:#1b1918;stroke-width:0.5;stroke-linecap:butt;stroke-linejoin:miter;stroke-dasharray:none"
       id="path29"
       inkscape:connector-curvature="0" />
    <path
       d="m 552.756,174.3293 a 0.7088,0.7088 0 0 1 0.7088,0.7088 0.7088,0.7088 0 1 1 -0.7088,-0.7088 z"
       style="fill:none;stroke:#1b1918;stroke-width:0.5;stroke-linecap:butt;stroke-linejoin:miter;stroke-dasharray:none"
       id="path31"
       inkscape:connector-curvature="0" />
    <path
       d="m 552.756,183.6292 a 0.7088,0.7088 0 0 1 0.7088,0.7088 0.7088,0.7088 0 1 1 -0.7088,-0.7088 z"
       style="fill:none;stroke:#1b1918;stroke-width:0.5;stroke-linecap:butt;stroke-linejoin:miter;stroke-dasharray:none"
       id="path33"
       inkscape:connector-curvature="0" />
    <path
       d="m 574.2994,196.7244 a 7.0868,7.0868 0 0 1 7.0869,7.0868 7.0868,7.0868 0 1 1 -7.0869,-7.0868 z"
       style="fill:none;stroke:#1b1918;stroke-width:0.5;stroke-linecap:butt;stroke-linejoin:miter;stroke-dasharray:none"
       id="path35"
       inkscape:connector-curvature="0" />
    <path
       d="m 538.5829,197.1496 a 6.6616,6.6616 0 0 1 6.6616,6.6616 6.6616,6.6616 0 1 1 -6.6616,-6.6616 z"
       style="fill:none;stroke:#1b1918;stroke-width:0.5;stroke-linecap:butt;stroke-linejoin:miter;stroke-dasharray:none"
       id="path37"
       inkscape:connector-curvature="0" />
  </g>
  <path
     inkscape:connector-curvature="0"
     id="path40"
     style="fill:none;stroke:#1b1918;stroke-width:0.5;stroke-linecap:butt;stroke-linejoin:miter;stroke-dasharray:none"
     d="m 38.32626,273.61641 85.0394,0 0,70.8661 -85.0394,0 0,-7.0866 -14.1732,0 0,-42.5197 14.1732,0 0,-5.2441 -14.1732,0 0,-3.9685 42.8862,0 0,-1.4173 -42.8862,0 0,-3.9685 14.1732,0 0,-6.6614 z" />
  <path
     inkscape:connector-curvature="0"
     id="path42"
     style="fill:none;stroke:#1b1918;stroke-width:0.5;stroke-linecap:butt;stroke-linejoin:miter;stroke-dasharray:none"
     d="m 38.32636,280.27781 42.5197,-10e-4" />
  <path
     inkscape:connector-curvature="0"
     id="path44"
     style="fill:none;stroke:#1b1918;stroke-width:0.5;stroke-linecap:butt;stroke-linejoin:miter;stroke-dasharray:none"
     d="m 38.32636,289.63211 42.5197,-0.0558" />
  <path
     inkscape:connector-curvature="0"
     id="path46"
     style="fill:none;stroke:#1b1918;stroke-width:0.5;stroke-linecap:butt;stroke-linejoin:miter;stroke-dasharray:none"
     d="m 80.84606,279.56771 a 0.7088,0.7088 0 0 1 0.7088,0.7088 0.7088,0.7088 0 1 1 -0.7088,-0.7088 z" />
  <path
     inkscape:connector-curvature="0"
     id="path48"
     style="fill:none;stroke:#1b1918;stroke-width:0.5;stroke-linecap:butt;stroke-linejoin:miter;stroke-dasharray:none"
     d="m 80.84606,288.86761 a 0.7088,0.7088 0 0 1 0.7088,0.7088 0.7088,0.7088 0 1 1 -0.7088,-0.7088 z" />
  <path
     inkscape:connector-curvature="0"
     id="path50"
     style="fill:none;stroke:#1b1918;stroke-width:0.5;stroke-linecap:butt;stroke-linejoin:miter;stroke-dasharray:none"
     d="m 102.38946,301.96281 a 7.0868,7.0868 0 0 1 7.0869,7.0868 7.0868,7.0868 0 1 1 -7.0869,-7.0868 z" />
  <path
     inkscape:connector-curvature="0"
     id="path52"
     style="fill:none;stroke:#1b1918;stroke-width:0.5;stroke-linecap:butt;stroke-linejoin:miter;stroke-dasharray:none"
     d="m 66.67296,302.38801 a 6.6616,6.6616 0 0 1 6.6616,6.6616 6.6616,6.6616 0 1 1 -6.6616,-6.6616 z" />
  <g
     id="Layer1006"
     transform="translate(24,-58)">
    <path
       d="m 0,695.1971 0,85.0394 566.9291,0 0,-85.0394 -566.9291,0 z"
       style="fill:none;stroke:#1b1918;stroke-width:0.5;stroke-linecap:butt;stroke-linejoin:miter;stroke-dasharray:none"
       id="path55"
       inkscape:connector-curvature="0" />
    <path
       d="m 8.5039,695.1971 0,8.504 14.1733,0 0,-8.504 -14.1733,0 z"
       style="fill:none;stroke:#1b1918;stroke-width:0.5;stroke-linecap:butt;stroke-linejoin:miter;stroke-dasharray:none"
       id="path57"
       inkscape:connector-curvature="0" />
    <path
       d="m 8.5039,771.7326 0,8.5039 14.1733,0 0,-8.5039 -14.1733,0 z"
       style="fill:none;stroke:#1b1918;stroke-width:0.5;stroke-linecap:butt;stroke-linejoin:miter;stroke-dasharray:none"
       id="path59"
       inkscape:connector-curvature="0" />
    <path
       d="m 28.3465,751.89 18.7202,0 0,-2.8346 4.252,0 0,2.8346 12.2482,0 0,-2.8346 4.252,0 0,2.8346 17.2205,0 0,5.6693 -17.2205,0 0,2.8347 -4.252,0 0,-2.8347 -12.2482,0 0,2.8347 -4.252,0 0,-2.8347 -18.7202,0 0,8.504 -28.3465,0 0,-56.6929 28.3465,0 0,8.5039 18.7202,0 0,-2.8346 4.252,0 0,2.8346 12.2482,0 0,-2.8346 4.252,0 0,2.8346 17.2205,0 0,5.6693 -17.2205,0 0,2.8346 -4.252,0 0,-2.8346 -12.2482,0 0,2.8346 -4.252,0 0,-2.8346 -18.7202,0 0,28.3464 z"
       style="fill:none;stroke:#1b1918;stroke-width:0.5;stroke-linecap:butt;stroke-linejoin:miter;stroke-dasharray:none"
       id="path61"
       inkscape:connector-curvature="0" />
    <g
       id="Layer1007">
      <path
         d="m 558.4252,695.1971 0,8.504 -14.1732,0 0,-8.504 14.1732,0 z"
         style="fill:none;stroke:#1b1918;stroke-width:0.5;stroke-linecap:butt;stroke-linejoin:miter;stroke-dasharray:none"
         id="path64"
         inkscape:connector-curvature="0" />
      <path
         d="m 558.4252,771.7326 0,8.5039 -14.1732,0 0,-8.5039 14.1732,0 z"
         style="fill:none;stroke:#1b1918;stroke-width:0.5;stroke-linecap:butt;stroke-linejoin:miter;stroke-dasharray:none"
         id="path66"
         inkscape:connector-curvature="0" />
      <path
         d="m 538.5827,751.89 -18.7203,0 0,-2.8346 -4.252,0 0,2.8346 -12.2482,0 0,-2.8346 -4.252,0 0,2.8346 -17.2204,0 0,5.6693 17.2204,0 0,2.8347 4.252,0 0,-2.8347 12.2482,0 0,2.8347 4.252,0 0,-2.8347 18.7203,0 0,8.504 28.3464,0 0,-56.6929 -28.3464,0 0,8.5039 -18.7203,0 0,-2.8346 -4.252,0 0,2.8346 -12.2482,0 0,-2.8346 -4.252,0 0,2.8346 -17.2204,0 0,5.6693 17.2204,0 0,2.8346 4.252,0 0,-2.8346 12.2482,0 0,2.8346 4.252,0 0,-2.8346 18.7203,0 0,28.3464 z"
         style="fill:none;stroke:#1b1918;stroke-width:0.5;stroke-linecap:butt;stroke-linejoin:miter;stroke-dasharray:none"
         id="path68"
         inkscape:connector-curvature="0" />
    </g>
  </g>
  <g
     id="Layer1008"
     transform="translate(24,-58)">
    <path
       d="m 0,610.1578 0,85.0393 566.9291,0 0,-85.0393 -566.9291,0 z"
       style="fill:none;stroke:#1b1918;stroke-width:0.5;stroke-linecap:butt;stroke-linejoin:miter;stroke-dasharray:none"
       id="path71"
       inkscape:connector-curvature="0" />
    <path
       d="m 0,618.6618 0,6.5197 14.1732,0 0,-6.5197 -14.1732,0 z"
       style="fill:none;stroke:#1b1918;stroke-width:0.5;stroke-linecap:butt;stroke-linejoin:miter;stroke-dasharray:none"
       id="path73"
       inkscape:connector-curvature="0" />
    <path
       d="m 0,680.1737 0,6.5196 14.1732,0 0,-6.5196 -14.1732,0 z"
       style="fill:none;stroke:#1b1918;stroke-width:0.5;stroke-linecap:butt;stroke-linejoin:miter;stroke-dasharray:none"
       id="path75"
       inkscape:connector-curvature="0" />
    <path
       d="m 14.1732,624.331 198.4252,0"
       style="fill:none;stroke:#1b1918;stroke-width:0.5;stroke-linecap:butt;stroke-linejoin:miter;stroke-dasharray:none"
       id="path77"
       inkscape:connector-curvature="0" />
    <path
       d="m 14.1732,681.0239 198.4252,0"
       style="fill:none;stroke:#1b1918;stroke-width:0.5;stroke-linecap:butt;stroke-linejoin:miter;stroke-dasharray:none"
       id="path79"
       inkscape:connector-curvature="0" />
    <path
       d="m 7.0866,632.1263 a 3.5433,3.5435 0 0 1 3.5433,3.5434 3.5433,3.5435 0 1 1 -3.5433,-3.5434 z"
       style="fill:none;stroke:#1b1918;stroke-width:0.5;stroke-linecap:butt;stroke-linejoin:miter;stroke-dasharray:none"
       id="path81"
       inkscape:connector-curvature="0" />
    <path
       d="m 7.0866,666.142 a 3.5433,3.5434 0 0 1 3.5433,3.5434 3.5433,3.5434 0 1 1 -3.5433,-3.5434 z"
       style="fill:none;stroke:#1b1918;stroke-width:0.5;stroke-linecap:butt;stroke-linejoin:miter;stroke-dasharray:none"
       id="path83"
       inkscape:connector-curvature="0" />
    <path
       d="m 566.9291,618.6618 0,6.5197 -14.1732,0 0,-6.5197 14.1732,0 z"
       style="fill:none;stroke:#1b1918;stroke-width:0.5;stroke-linecap:butt;stroke-linejoin:miter;stroke-dasharray:none"
       id="path85"
       inkscape:connector-curvature="0" />
    <path
       d="m 566.9291,680.1737 0,6.5196 -14.1732,0 0,-6.5196 14.1732,0 z"
       style="fill:none;stroke:#1b1918;stroke-width:0.5;stroke-linecap:butt;stroke-linejoin:miter;stroke-dasharray:none"
       id="path87"
       inkscape:connector-curvature="0" />
    <path
       d="m 552.7559,624.331 -198.4252,0"
       style="fill:none;stroke:#1b1918;stroke-width:0.5;stroke-linecap:butt;stroke-linejoin:miter;stroke-dasharray:none"
       id="path89"
       inkscape:connector-curvature="0" />
    <path
       d="m 552.7559,681.0239 -198.4252,0"
       style="fill:none;stroke:#1b1918;stroke-width:0.5;stroke-linecap:butt;stroke-linejoin:miter;stroke-dasharray:none"
       id="path91"
       inkscape:connector-curvature="0" />
    <path
       d="m 559.8425,632.1263 a 3.5433,3.5435 0 0 0 -3.5433,3.5434 3.5433,3.5435 0 1 0 3.5433,-3.5434 z"
       style="fill:none;stroke:#1b1918;stroke-width:0.5;stroke-linecap:butt;stroke-linejoin:miter;stroke-dasharray:none"
       id="path93"
       inkscape:connector-curvature="0" />
    <path
       d="m 559.8425,666.142 a 3.5433,3.5434 0 0 0 -3.5433,3.5434 3.5433,3.5434 0 1 0 3.5433,-3.5434 z"
       style="fill:none;stroke:#1b1918;stroke-width:0.5;stroke-linecap:butt;stroke-linejoin:miter;stroke-dasharray:none"
       id="path95"
       inkscape:connector-curvature="0" />
  </g>
  <g
     id="Layer1009"
     transform="translate(24,-58)">
    <path
       d="m 0,525.1184 0,85.0394 566.9291,0 0,-85.0394 -566.9291,0 z"
       style="fill:none;stroke:#1b1918;stroke-width:0.5;stroke-linecap:butt;stroke-linejoin:miter;stroke-dasharray:none"
       id="path98"
       inkscape:connector-curvature="0" />
    <path
       d="m 8.5039,525.1184 0,8.5039 14.1733,0 0,-8.5039 -14.1733,0 z"
       style="fill:none;stroke:#1b1918;stroke-width:0.5;stroke-linecap:butt;stroke-linejoin:miter;stroke-dasharray:none"
       id="path100"
       inkscape:connector-curvature="0" />
    <path
       d="m 8.5039,601.6538 0,8.504 14.1733,0 0,-8.504 -14.1733,0 z"
       style="fill:none;stroke:#1b1918;stroke-width:0.5;stroke-linecap:butt;stroke-linejoin:miter;stroke-dasharray:none"
       id="path102"
       inkscape:connector-curvature="0" />
    <path
       d="m 28.3465,581.8113 18.7202,0 0,-2.8346 4.252,0 0,2.8346 12.2482,0 0,-2.8346 4.252,0 0,2.8346 17.2205,0 0,5.6693 -17.2205,0 0,2.8346 -4.252,0 0,-2.8346 -12.2482,0 0,2.8346 -4.252,0 0,-2.8346 -18.7202,0 0,8.5039 -28.3465,0 0,-56.6929 28.3465,0 0,8.504 18.7202,0 0,-2.8347 4.252,0 0,2.8347 12.2482,0 0,-2.8347 4.252,0 0,2.8347 17.2205,0 0,5.6693 -17.2205,0 0,2.8346 -4.252,0 0,-2.8346 -12.2482,0 0,2.8346 -4.252,0 0,-2.8346 -18.7202,0 0,28.3464 z"
       style="fill:none;stroke:#1b1918;stroke-width:0.5;stroke-linecap:butt;stroke-linejoin:miter;stroke-dasharray:none"
       id="path104"
       inkscape:connector-curvature="0" />
    <g
       id="Layer1010">
      <path
         d="m 558.4252,525.1184 0,8.5039 -14.1732,0 0,-8.5039 14.1732,0 z"
         style="fill:none;stroke:#1b1918;stroke-width:0.5;stroke-linecap:butt;stroke-linejoin:miter;stroke-dasharray:none"
         id="path107"
         inkscape:connector-curvature="0" />
      <path
         d="m 558.4252,601.6538 0,8.504 -14.1732,0 0,-8.504 14.1732,0 z"
         style="fill:none;stroke:#1b1918;stroke-width:0.5;stroke-linecap:butt;stroke-linejoin:miter;stroke-dasharray:none"
         id="path109"
         inkscape:connector-curvature="0" />
      <path
         d="m 538.5827,581.8113 -18.7203,0 0,-2.8346 -4.252,0 0,2.8346 -12.2482,0 0,-2.8346 -4.252,0 0,2.8346 -17.2204,0 0,5.6693 17.2204,0 0,2.8346 4.252,0 0,-2.8346 12.2482,0 0,2.8346 4.252,0 0,-2.8346 18.7203,0 0,8.5039 28.3464,0 0,-56.6929 -28.3464,0 0,8.504 -18.7203,0 0,-2.8347 -4.252,0 0,2.8347 -12.2482,0 0,-2.8347 -4.252,0 0,2.8347 -17.2204,0 0,5.6693 17.2204,0 0,2.8346 4.252,0 0,-2.8346 12.2482,0 0,2.8346 4.252,0 0,-2.8346 18.7203,0 0,28.3464 z"
         style="fill:none;stroke:#1b1918;stroke-width:0.5;stroke-linecap:butt;stroke-linejoin:miter;stroke-dasharray:none"
         id="path111"
         inkscape:connector-curvature="0" />
    </g>
  </g>
  <g
     id="Layer1011"
     transform="translate(24,-58)">
    <path
       d="m 0,440.079 0,85.0394 566.9291,0 0,-85.0394 -566.9291,0 z"
       style="fill:none;stroke:#1b1918;stroke-width:0.5;stroke-linecap:butt;stroke-linejoin:miter;stroke-dasharray:none"
       id="path114"
       inkscape:connector-curvature="0" />
    <path
       d="m 0,448.5831 0,6.5197 14.1732,0 0,-6.5197 -14.1732,0 z"
       style="fill:none;stroke:#1b1918;stroke-width:0.5;stroke-linecap:butt;stroke-linejoin:miter;stroke-dasharray:none"
       id="path116"
       inkscape:connector-curvature="0" />
    <path
       d="m 0,510.0949 0,6.5197 14.1732,0 0,-6.5197 -14.1732,0 z"
       style="fill:none;stroke:#1b1918;stroke-width:0.5;stroke-linecap:butt;stroke-linejoin:miter;stroke-dasharray:none"
       id="path118"
       inkscape:connector-curvature="0" />
    <path
       d="m 14.1732,454.2523 198.4252,0"
       style="fill:none;stroke:#1b1918;stroke-width:0.5;stroke-linecap:butt;stroke-linejoin:miter;stroke-dasharray:none"
       id="path120"
       inkscape:connector-curvature="0" />
    <path
       d="m 14.1732,510.9452 198.4252,0"
       style="fill:none;stroke:#1b1918;stroke-width:0.5;stroke-linecap:butt;stroke-linejoin:miter;stroke-dasharray:none"
       id="path122"
       inkscape:connector-curvature="0" />
    <path
       d="m 7.0866,462.0475 a 3.5433,3.5435 0 0 1 3.5433,3.5435 3.5433,3.5435 0 1 1 -3.5433,-3.5435 z"
       style="fill:none;stroke:#1b1918;stroke-width:0.5;stroke-linecap:butt;stroke-linejoin:miter;stroke-dasharray:none"
       id="path124"
       inkscape:connector-curvature="0" />
    <path
       d="m 7.0866,496.0633 a 3.5433,3.5434 0 0 1 3.5433,3.5434 3.5433,3.5434 0 1 1 -3.5433,-3.5434 z"
       style="fill:none;stroke:#1b1918;stroke-width:0.5;stroke-linecap:butt;stroke-linejoin:miter;stroke-dasharray:none"
       id="path126"
       inkscape:connector-curvature="0" />
    <path
       d="m 566.9291,448.5831 0,6.5197 -14.1732,0 0,-6.5197 14.1732,0 z"
       style="fill:none;stroke:#1b1918;stroke-width:0.5;stroke-linecap:butt;stroke-linejoin:miter;stroke-dasharray:none"
       id="path128"
       inkscape:connector-curvature="0" />
    <path
       d="m 566.9291,510.0949 0,6.5197 -14.1732,0 0,-6.5197 14.1732,0 z"
       style="fill:none;stroke:#1b1918;stroke-width:0.5;stroke-linecap:butt;stroke-linejoin:miter;stroke-dasharray:none"
       id="path130"
       inkscape:connector-curvature="0" />
    <path
       d="m 552.7559,454.2523 -198.4252,0"
       style="fill:none;stroke:#1b1918;stroke-width:0.5;stroke-linecap:butt;stroke-linejoin:miter;stroke-dasharray:none"
       id="path132"
       inkscape:connector-curvature="0" />
    <path
       d="m 552.7559,510.9452 -198.4252,0"
       style="fill:none;stroke:#1b1918;stroke-width:0.5;stroke-linecap:butt;stroke-linejoin:miter;stroke-dasharray:none"
       id="path134"
       inkscape:connector-curvature="0" />
    <path
       d="m 559.8425,462.0475 a 3.5433,3.5435 0 0 0 -3.5433,3.5435 3.5433,3.5435 0 1 0 3.5433,-3.5435 z"
       style="fill:none;stroke:#1b1918;stroke-width:0.5;stroke-linecap:butt;stroke-linejoin:miter;stroke-dasharray:none"
       id="path136"
       inkscape:connector-curvature="0" />
    <path
       d="m 559.8425,496.0633 a 3.5433,3.5434 0 0 0 -3.5433,3.5434 3.5433,3.5434 0 1 0 3.5433,-3.5434 z"
       style="fill:none;stroke:#1b1918;stroke-width:0.5;stroke-linecap:butt;stroke-linejoin:miter;stroke-dasharray:none"
       id="path138"
       inkscape:connector-curvature="0" />
  </g>
  <text
     xml:space="preserve"
     style="font-style:normal;font-weight:normal;font-size:11.25px;line-height:125%;font-family:sans-serif;letter-spacing:0px;word-spacing:0px;fill:#000000;fill-opacity:1;stroke:none;stroke-width:1px;stroke-linecap:butt;stroke-linejoin:miter;stroke-opacity:1"
     x="26.847458"
     y="261.7627"
     id="text8223"
     sodipodi:linespacing="125%"><tspan
       sodipodi:role="line"
       id="tspan8225"
       x="26.847458"
       y="261.7627">Simple Photogate with holes for LED &amp; phototransistor</tspan></text>
  <path
     inkscape:connector-curvature="0"
     id="path50-0"
     style="fill:none;stroke:#1b1918;stroke-width:0.5;stroke-linecap:butt;stroke-linejoin:miter;stroke-dasharray:none"
     d="m 86.769905,416.27153 a 7.0868,7.0868 0 0 1 7.0869,7.0868 7.0868,7.0868 0 1 1 -7.0869,-7.0868 z" />
  <path
     inkscape:connector-curvature="0"
     id="path52-3"
     style="fill:none;stroke:#1b1918;stroke-width:0.5;stroke-linecap:butt;stroke-linejoin:miter;stroke-dasharray:none"
     d="m 51.053405,416.69715 a 6.6616,6.6616 0 0 1 6.6616,6.6616 6.6616,6.6616 0 1 1 -6.6616,-6.6616 z" />
  <path
     inkscape:connector-curvature="0"
     id="path50-5"
     style="fill:none;stroke:#1b1918;stroke-width:0.5;stroke-linecap:butt;stroke-linejoin:miter;stroke-dasharray:none"
     d="m 561.63431,416.27153 a 7.0868,7.0868 0 0 1 7.0869,7.0868 7.0868,7.0868 0 1 1 -7.0869,-7.0868 z" />
  <path
     inkscape:connector-curvature="0"
     id="path52-9"
     style="fill:none;stroke:#1b1918;stroke-width:0.5;stroke-linecap:butt;stroke-linejoin:miter;stroke-dasharray:none"
     d="m 525.91781,416.69715 a 6.6616,6.6616 0 0 1 6.6616,6.6616 6.6616,6.6616 0 1 1 -6.6616,-6.6616 z" />
  <text
     xml:space="preserve"
     style="font-style:normal;font-weight:normal;font-size:11.25px;line-height:125%;font-family:sans-serif;letter-spacing:0px;word-spacing:0px;fill:#000000;fill-opacity:1;stroke:none;stroke-width:1px;stroke-linecap:butt;stroke-linejoin:miter;stroke-opacity:1"
     x="101.51695"
     y="423.68643"
     id="text8260"
     sodipodi:linespacing="125%"><tspan
       sodipodi:role="line"
       id="tspan8262"
       x="101.51695"
       y="423.68643">Receiver</tspan></text>
  <text
     xml:space="preserve"
     style="font-style:normal;font-weight:normal;font-size:11.25px;line-height:125%;font-family:sans-serif;letter-spacing:0px;word-spacing:0px;fill:#000000;fill-opacity:1;stroke:none;stroke-width:1px;stroke-linecap:butt;stroke-linejoin:miter;stroke-opacity:1"
     x="476.54236"
     y="414.45764"
     id="text8264"
     sodipodi:linespacing="125%"><tspan
       sodipodi:role="line"
       id="tspan8266"
       x="476.54236"
       y="414.45764">Laser Diode</tspan></text>
  <text
     xml:space="preserve"
     style="font-style:normal;font-weight:normal;font-size:11.25px;line-height:125%;font-family:sans-serif;letter-spacing:0px;word-spacing:0px;fill:#000000;fill-opacity:1;stroke:none;stroke-width:1px;stroke-linecap:butt;stroke-linejoin:miter;stroke-opacity:1"
     x="288.50784"
     y="597.35504"
     id="text8268-5"
     sodipodi:linespacing="125%"><tspan
       sodipodi:role="line"
       id="tspan8270-2"
       x="288.50784"
       y="597.35504">mirror</tspan></text>
  <rect
     style="fill:none;fill-opacity:0.97988503;stroke:#000000;stroke-width:0.70899999;stroke-linejoin:round;stroke-miterlimit:4;stroke-dasharray:0.70899999, 5.67199993000000013;stroke-dashoffset:0;stroke-opacity:0.96551723"
     id="rect8290"
     width="531.07629"
     height="51.177967"
     x="42.788136"
     y="568.83051" />
  <text
     xml:space="preserve"
     style="font-style:normal;font-weight:normal;font-size:11.25px;line-height:125%;font-family:sans-serif;letter-spacing:0px;word-spacing:0px;fill:#000000;fill-opacity:1;stroke:none;stroke-width:1px;stroke-linecap:butt;stroke-linejoin:miter;stroke-opacity:1"
     x="285.05444"
     y="427.78302"
     id="text8268-5-5"
     sodipodi:linespacing="125%"><tspan
       sodipodi:role="line"
       id="tspan8270-2-6"
       x="285.05444"
       y="427.78302">mirror</tspan></text>
  <rect
     style="fill:none;fill-opacity:0.97988503;stroke:#000000;stroke-width:0.70899999;stroke-linejoin:round;stroke-miterlimit:4;stroke-dasharray:0.70899999, 5.67199993;stroke-dashoffset:0;stroke-opacity:0.96551723"
     id="rect8290-5"
     width="531.07629"
     height="51.177967"
     x="39.334736"
     y="399.25848" />
  <text
     xml:space="preserve"
     style="font-style:normal;font-weight:normal;font-size:11.25px;line-height:125%;font-family:sans-serif;letter-spacing:0px;word-spacing:0px;fill:#000000;fill-opacity:1;stroke:none;stroke-width:1px;stroke-linecap:butt;stroke-linejoin:miter;stroke-opacity:1"
     x="29.684252"
     y="373.93414"
     id="text8223-2"
     sodipodi:linespacing="125%"><tspan
       sodipodi:role="line"
       id="tspan8225-1"
       x="29.684252"
       y="373.93414">Laser grid assembly</tspan></text>
</svg>
